# xmcd
#
# Track frame offsets:
#	150
#	15904
#	35800
#	54487
#	71719
#	94859
#	110717
#	134925
#	157543
#	177604
#
# Disc length: 2660 seconds
#
# Revision: 0
# Processed by: cddbd v1.5.2PL0 Copyright (c) Steve Scherf et al.
# Submitted via: dBpowerAMP V4.0
#
DISCID=8b0a620a
DTITLE=Halo Of Shadows - Manifesto
DYEAR=2006
DGENRE=Death Melodic
TTITLE0=Trapped in infinity
TTITLE1=Whore
TTITLE2=Burn in depths
TTITLE3=Manifesto
TTITLE4=Drowned in ashes
TTITLE5=Ravenous heart
TTITLE6=The force zero
TTITLE7=Follow and fall
TTITLE8=Carved in flesh
TTITLE9=Eyes of faith
EXTD=
EXTT0=
EXTT1=
EXTT2=
EXTT3=
EXTT4=
EXTT5=
EXTT6=
EXTT7=
EXTT8=
EXTT9=
PLAYORDER=
